<svg width="1201" height="54" viewBox="0 0 1201 54" fill="none" xmlns="http://www.w3.org/2000/svg">
<path d="M4.80956 33L4.80998 17.6H14.82L14.8199 20.713H7.92289L7.92281 23.672H14.0608L14.0607 26.785H7.92273L7.92264 29.887H14.8196L14.8196 33H4.80956ZM6.06359 31.746H13.7636L13.7636 31.064H6.73461L6.73476 25.564H12.9938L12.9938 24.882H6.73478L6.73493 19.459H13.7639L13.7639 18.788H6.06395L6.06359 31.746ZM19.5455 31.834H20.2275L20.2278 19.547H22.7688L26.7725 31.79H30.5125L30.5128 18.788H29.8418L29.8415 31.086H27.3005L23.2968 18.832H19.5458L19.5455 31.834ZM18.3464 33L18.3469 17.6H24.3199L28.1255 29.843H28.5985L28.5989 17.6H31.7119L31.7114 33H25.7384L21.9108 20.724H21.4598L21.4594 33H18.3464ZM37.9357 33L35.6698 30.734L35.6701 19.866L37.9361 17.6H44.9321L47.1981 19.866L47.198 22.638H44.096L44.096 21.384L43.425 20.713H39.432L38.772 21.406L38.7718 29.227L39.4318 29.887H43.4248L44.0958 29.216L44.0959 27.698H41.0489L41.0489 24.596H47.1979L47.1978 30.734L44.9317 33H37.9357ZM38.5737 31.746H44.3157L45.9878 30.074L45.9879 25.839H42.2699L42.2699 26.51H45.3059L45.3058 29.788L44.0078 31.064H38.8708L37.5728 29.788L37.573 20.746L38.8711 19.459H44.0081L45.306 20.746L45.306 21.494H45.988L45.9881 20.449L44.3161 18.788H38.5741L36.9021 20.449L36.9018 30.074L38.5737 31.746Z" fill="white"/>
<path d="M4.80956 33H3.80956L3.80953 34H4.80953L4.80956 33ZM4.80998 17.6L4.81 16.6H3.81L3.80998 17.6H4.80998ZM14.82 17.6H15.82L15.82 16.6H14.82L14.82 17.6ZM14.8199 20.713L14.8199 21.713H15.8199L15.8199 20.713H14.8199ZM7.92289 20.713L7.92292 19.713H6.92292L6.92289 20.713H7.92289ZM7.92281 23.672H6.92281L6.92279 24.672H7.92279L7.92281 23.672ZM14.0608 23.672H15.0608L15.0608 22.672H14.0608L14.0608 23.672ZM14.0607 26.785L14.0607 27.785H15.0607L15.0607 26.785H14.0607ZM7.92273 26.785L7.92276 25.785H6.92276L6.92273 26.785H7.92273ZM7.92264 29.887H6.92264L6.92262 30.887H7.92262L7.92264 29.887ZM14.8196 29.887H15.8196L15.8197 28.887H14.8197L14.8196 29.887ZM14.8196 33L14.8195 34H15.8195L15.8196 33H14.8196ZM6.06359 31.746H5.06359L5.06357 32.746H6.06357L6.06359 31.746ZM13.7636 31.746L13.7636 32.746H14.7636L14.7636 31.746H13.7636ZM13.7636 31.064H14.7636L14.7636 30.064H13.7636L13.7636 31.064ZM6.73461 31.064H5.73461L5.73459 32.064H6.73459L6.73461 31.064ZM6.73476 25.564L6.73479 24.564H5.73479L5.73476 25.564H6.73476ZM12.9938 25.564L12.9937 26.564H13.9937L13.9938 25.564H12.9938ZM12.9938 24.882H13.9938L13.9938 23.882H12.9938L12.9938 24.882ZM6.73478 24.882H5.73478L5.73475 25.882H6.73475L6.73478 24.882ZM6.73493 19.459L6.73495 18.459H5.73495L5.73493 19.459H6.73493ZM13.7639 19.459L13.7639 20.459H14.7639L14.7639 19.459H13.7639ZM13.7639 18.788H14.7639L14.764 17.788H13.764L13.7639 18.788ZM6.06395 18.788L6.06397 17.788H5.06397L5.06395 18.788H6.06395ZM5.80956 33L5.80998 17.6H3.80998L3.80956 33H5.80956ZM4.80995 18.6H14.82L14.82 16.6H4.81L4.80995 18.6ZM13.82 17.6L13.8199 20.713H15.8199L15.82 17.6H13.82ZM14.8199 19.713H7.92292L7.92287 21.713H14.8199L14.8199 19.713ZM6.92289 20.713L6.92281 23.672H8.92281L8.92289 20.713H6.92289ZM7.92279 24.672H14.0608L14.0608 22.672H7.92284L7.92279 24.672ZM13.0608 23.672L13.0607 26.785H15.0607L15.0608 23.672H13.0608ZM14.0608 25.785H7.92276L7.9227 27.785H14.0607L14.0608 25.785ZM6.92273 26.785L6.92264 29.887H8.92264L8.92273 26.785H6.92273ZM7.92262 30.887H14.8196L14.8197 28.887H7.92267L7.92262 30.887ZM13.8196 29.887L13.8196 33H15.8196L15.8196 29.887H13.8196ZM14.8196 32H4.80959L4.80953 34H14.8195L14.8196 32ZM6.06357 32.746H13.7636L13.7636 30.746H6.06362L6.06357 32.746ZM14.7636 31.746L14.7636 31.064H12.7636L12.7636 31.746H14.7636ZM13.7636 30.064H6.73464L6.73459 32.064H13.7636L13.7636 30.064ZM7.73461 31.064L7.73476 25.564H5.73476L5.73461 31.064H7.73461ZM6.73473 26.564H12.9937L12.9938 24.564H6.73479L6.73473 26.564ZM13.9938 25.564L13.9938 24.882H11.9938L11.9938 25.564H13.9938ZM12.9938 23.882H6.73481L6.73475 25.882H12.9938L12.9938 23.882ZM7.73478 24.882L7.73493 19.459H5.73493L5.73478 24.882H7.73478ZM6.7349 20.459H13.7639L13.764 18.459H6.73495L6.7349 20.459ZM14.7639 19.459L14.7639 18.788H12.7639L12.7639 19.459H14.7639ZM13.764 17.788H6.06397L6.06392 19.788H13.7639L13.764 17.788ZM5.06395 18.788L5.06359 31.746H7.06359L7.06395 18.788H5.06395ZM19.5455 31.834H18.5455L18.5454 32.834H19.5454L19.5455 31.834ZM20.2275 31.834L20.2274 32.834H21.2274L21.2275 31.834H20.2275ZM20.2278 19.547L20.2278 18.547H19.2278L19.2278 19.547H20.2278ZM22.7688 19.547L23.7193 19.2362L23.4939 18.547H22.7688L22.7688 19.547ZM26.7725 31.79L25.822 32.1008L26.0474 32.79H26.7724L26.7725 31.79ZM30.5125 31.79L30.5124 32.79H31.5124L31.5125 31.79H30.5125ZM30.5128 18.788H31.5128L31.5128 17.788H30.5128L30.5128 18.788ZM29.8418 18.788L29.8418 17.788H28.8418L28.8418 18.788H29.8418ZM29.8415 31.086L29.8415 32.086H30.8415L30.8415 31.086H29.8415ZM27.3005 31.086L26.3499 31.3966L26.5752 32.086H27.3005L27.3005 31.086ZM23.2968 18.832L24.2474 18.5214L24.0221 17.832H23.2968L23.2968 18.832ZM19.5458 18.832L19.5458 17.832H18.5458L18.5458 18.832H19.5458ZM18.3464 33H17.3464L17.3464 34H18.3464L18.3464 33ZM18.3469 17.6L18.3469 16.6H17.3469L17.3469 17.6H18.3469ZM24.3199 17.6L25.2748 17.3031L25.0562 16.6H24.3199L24.3199 17.6ZM28.1255 29.843L27.1706 30.1399L27.3892 30.843H28.1255L28.1255 29.843ZM28.5985 29.843L28.5985 30.843H29.5985L29.5985 29.843H28.5985ZM28.5989 17.6L28.5989 16.6H27.5989L27.5989 17.6H28.5989ZM31.7119 17.6H32.7119L32.7119 16.6H31.7119L31.7119 17.6ZM31.7114 33L31.7114 34H32.7114L32.7114 33H31.7114ZM25.7384 33L24.7838 33.2977L25.0027 34H25.7384L25.7384 33ZM21.9108 20.724L22.8654 20.4263L22.6465 19.724H21.9108L21.9108 20.724ZM21.4598 20.724L21.4598 19.724H20.4598L20.4598 20.724H21.4598ZM21.4594 33L21.4594 34H22.4594L22.4594 33H21.4594ZM19.5454 32.834H20.2274L20.2275 30.834H19.5455L19.5454 32.834ZM21.2275 31.834L21.2278 19.547H19.2278L19.2275 31.834H21.2275ZM20.2278 20.547H22.7688L22.7688 18.547H20.2278L20.2278 20.547ZM21.8183 19.8578L25.822 32.1008L27.7229 31.4792L23.7193 19.2362L21.8183 19.8578ZM26.7724 32.79H30.5124L30.5125 30.79H26.7725L26.7724 32.79ZM31.5125 31.79L31.5128 18.788H29.5128L29.5125 31.79H31.5125ZM30.5128 17.788H29.8418L29.8418 19.788H30.5128L30.5128 17.788ZM28.8418 18.788L28.8415 31.086H30.8415L30.8418 18.788H28.8418ZM29.8415 30.086H27.3005L27.3005 32.086H29.8415L29.8415 30.086ZM28.251 30.7754L24.2474 18.5214L22.3463 19.1426L26.3499 31.3966L28.251 30.7754ZM23.2968 17.832H19.5458L19.5458 19.832H23.2968L23.2968 17.832ZM18.5458 18.832L18.5455 31.834H20.5455L20.5458 18.832H18.5458ZM19.3464 33L19.3469 17.6H17.3469L17.3464 33H19.3464ZM18.3468 18.6H24.3198L24.3199 16.6H18.3469L18.3468 18.6ZM23.3649 17.8969L27.1706 30.1399L29.0804 29.5461L25.2748 17.3031L23.3649 17.8969ZM28.1255 30.843H28.5985L28.5985 28.843H28.1255L28.1255 30.843ZM29.5985 29.843L29.5989 17.6H27.5989L27.5985 29.843H29.5985ZM28.5988 18.6H31.7118L31.7119 16.6H28.5989L28.5988 18.6ZM30.7119 17.6L30.7114 33H32.7114L32.7119 17.6H30.7119ZM31.7115 32H25.7385L25.7384 34H31.7114L31.7115 32ZM26.6931 32.7023L22.8654 20.4263L20.9561 21.0217L24.7838 33.2977L26.6931 32.7023ZM21.9108 19.724H21.4598L21.4597 21.724H21.9107L21.9108 19.724ZM20.4598 20.724L20.4594 33H22.4594L22.4598 20.724H20.4598ZM21.4595 32H18.3465L18.3464 34H21.4594L21.4595 32ZM37.9357 33L37.2286 33.7071L37.5215 34H37.9357L37.9357 33ZM35.6698 30.734H34.6698L34.6698 31.1482L34.9626 31.4411L35.6698 30.734ZM35.6701 19.866L34.963 19.1589L34.6701 19.4518L34.6701 19.866H35.6701ZM37.9361 17.6L37.9362 16.6H37.5219L37.229 16.8929L37.9361 17.6ZM44.9321 17.6L45.6393 16.8929L45.3464 16.6H44.9322L44.9321 17.6ZM47.1981 19.866H48.1981L48.1981 19.4518L47.9052 19.1589L47.1981 19.866ZM47.198 22.638L47.198 23.638H48.198L48.198 22.638H47.198ZM44.096 22.638H43.096L43.096 23.638H44.096L44.096 22.638ZM44.096 21.384H45.096L45.096 20.9698L44.8032 20.6769L44.096 21.384ZM43.425 20.713L44.1322 20.0059L43.8393 19.713H43.4251L43.425 20.713ZM39.432 20.713L39.4321 19.713H39.0035L38.7079 20.0233L39.432 20.713ZM38.772 21.406L38.0479 20.7163L37.772 21.006L37.772 21.406H38.772ZM38.7718 29.227H37.7718L37.7718 29.6412L38.0647 29.9341L38.7718 29.227ZM39.4318 29.887L38.7247 30.5941L39.0176 30.887H39.4318L39.4318 29.887ZM43.4248 29.887L43.4248 30.887H43.839L44.1319 30.5941L43.4248 29.887ZM44.0958 29.216L44.8029 29.9231L45.0958 29.6302L45.0958 29.216H44.0958ZM44.0959 27.698H45.0959L45.0959 26.698H44.0959L44.0959 27.698ZM41.0489 27.698H40.0489L40.0488 28.698H41.0488L41.0489 27.698ZM41.0489 24.596L41.049 23.596H40.049L40.0489 24.596H41.0489ZM47.1979 24.596H48.1979L48.198 23.596H47.198L47.1979 24.596ZM47.1978 30.734L47.9049 31.4411L48.1978 31.1482L48.1978 30.734H47.1978ZM44.9317 33L44.9317 34H45.3459L45.6388 33.7071L44.9317 33ZM38.5737 31.746L37.8666 32.4531L38.1595 32.746H38.5737L38.5737 31.746ZM44.3157 31.746L44.3157 32.746H44.7299L45.0228 32.4531L44.3157 31.746ZM45.9878 30.074L46.6949 30.7811L46.9878 30.4882L46.9878 30.074H45.9878ZM45.9879 25.839H46.9879L46.9879 24.839H45.9879L45.9879 25.839ZM42.2699 25.839L42.2699 24.839H41.2699L41.2699 25.839H42.2699ZM42.2699 26.51H41.2699L41.2699 27.51H42.2699L42.2699 26.51ZM45.3059 26.51H46.3059L46.3059 25.51H45.3059L45.3059 26.51ZM45.3058 29.788L46.0068 30.5011L46.3058 30.2072L46.3058 29.788H45.3058ZM44.0078 31.064L44.0077 32.064H44.417L44.7088 31.7771L44.0078 31.064ZM38.8708 31.064L38.1697 31.7771L38.4615 32.064H38.8707L38.8708 31.064ZM37.5728 29.788H36.5728L36.5728 30.2072L36.8717 30.5011L37.5728 29.788ZM37.573 20.746L36.869 20.0359L36.5731 20.3293L36.573 20.746H37.573ZM38.8711 19.459L38.8711 18.459H38.4594L38.167 18.7489L38.8711 19.459ZM44.0081 19.459L44.7122 18.7489L44.4198 18.459H44.0081L44.0081 19.459ZM45.306 20.746H46.306L46.3061 20.3293L46.0102 20.0359L45.306 20.746ZM45.306 21.494H44.306L44.306 22.494H45.306L45.306 21.494ZM45.988 21.494L45.988 22.494H46.988L46.988 21.494H45.988ZM45.9881 20.449H46.9881L46.9881 20.0329L46.6928 19.7396L45.9881 20.449ZM44.3161 18.788L45.0209 18.0786L44.7284 17.788H44.3161L44.3161 18.788ZM38.5741 18.788L38.5741 17.788H38.1618L37.8693 18.0786L38.5741 18.788ZM36.9021 20.449L36.1973 19.7396L35.9021 20.0329L35.9021 20.449H36.9021ZM36.9018 30.074H35.9018L35.9018 30.4882L36.1947 30.7811L36.9018 30.074ZM38.6428 32.2929L36.3769 30.0269L34.9626 31.4411L37.2286 33.7071L38.6428 32.2929ZM36.6698 30.734L36.6701 19.866H34.6701L34.6698 30.734H36.6698ZM36.3772 20.5731L38.6432 18.3071L37.229 16.8929L34.963 19.1589L36.3772 20.5731ZM37.9361 18.6H44.9321L44.9322 16.6H37.9362L37.9361 18.6ZM44.225 18.3071L46.4909 20.5731L47.9052 19.1589L45.6393 16.8929L44.225 18.3071ZM46.1981 19.866L46.198 22.638H48.198L48.1981 19.866H46.1981ZM47.198 21.638H44.096L44.096 23.638H47.198L47.198 21.638ZM45.096 22.638L45.096 21.384H43.096L43.096 22.638H45.096ZM44.8032 20.6769L44.1322 20.0059L42.7179 21.4201L43.3889 22.0911L44.8032 20.6769ZM43.4251 19.713H39.4321L39.432 21.713H43.425L43.4251 19.713ZM38.7079 20.0233L38.0479 20.7163L39.4961 22.0957L40.1562 21.4027L38.7079 20.0233ZM37.772 21.406L37.7718 29.227H39.7718L39.772 21.406H37.772ZM38.0647 29.9341L38.7247 30.5941L40.1389 29.1799L39.4789 28.5199L38.0647 29.9341ZM39.4318 30.887H43.4248L43.4248 28.887H39.4318L39.4318 30.887ZM44.1319 30.5941L44.8029 29.9231L43.3887 28.5089L42.7177 29.1799L44.1319 30.5941ZM45.0958 29.216L45.0959 27.698H43.0959L43.0958 29.216H45.0958ZM44.0959 26.698H41.0489L41.0488 28.698H44.0958L44.0959 26.698ZM42.0489 27.698L42.0489 24.596H40.0489L40.0489 27.698H42.0489ZM41.0489 25.596H47.1979L47.198 23.596H41.049L41.0489 25.596ZM46.1979 24.596L46.1978 30.734H48.1978L48.1979 24.596H46.1979ZM46.4907 30.0269L44.2246 32.2929L45.6388 33.7071L47.9049 31.4411L46.4907 30.0269ZM44.9317 32H37.9357L37.9357 34H44.9317L44.9317 32ZM38.5737 32.746H44.3157L44.3158 30.746H38.5738L38.5737 32.746ZM45.0228 32.4531L46.6949 30.7811L45.2807 29.3669L43.6087 31.0389L45.0228 32.4531ZM46.9878 30.074L46.9879 25.839H44.9879L44.9878 30.074H46.9878ZM45.9879 24.839H42.2699L42.2699 26.839H45.9879L45.9879 24.839ZM41.2699 25.839L41.2699 26.51H43.2699L43.2699 25.839H41.2699ZM42.2699 27.51H45.3059L45.3059 25.51H42.2699L42.2699 27.51ZM44.3059 26.51L44.3058 29.788H46.3058L46.3059 26.51H44.3059ZM44.6048 29.0749L43.3067 30.3509L44.7088 31.7771L46.0068 30.5011L44.6048 29.0749ZM44.0078 30.064H38.8708L38.8707 32.064H44.0077L44.0078 30.064ZM39.5718 30.3509L38.2739 29.0749L36.8717 30.5011L38.1697 31.7771L39.5718 30.3509ZM38.5728 29.788L38.573 20.746H36.573L36.5728 29.788H38.5728ZM38.2771 21.4561L39.5752 20.1691L38.167 18.7489L36.869 20.0359L38.2771 21.4561ZM38.8711 20.459H44.0081L44.0081 18.459H38.8711L38.8711 20.459ZM43.304 20.1691L44.6019 21.4561L46.0102 20.0359L44.7122 18.7489L43.304 20.1691ZM44.306 20.746L44.306 21.494H46.306L46.306 20.746H44.306ZM45.306 22.494H45.988L45.9881 20.494H45.3061L45.306 22.494ZM46.988 21.494L46.9881 20.449H44.9881L44.988 21.494H46.988ZM46.6928 19.7396L45.0209 18.0786L43.6113 19.4974L45.2833 21.1584L46.6928 19.7396ZM44.3161 17.788H38.5741L38.5741 19.788H44.3161L44.3161 17.788ZM37.8693 18.0786L36.1973 19.7396L37.6068 21.1584L39.2788 19.4974L37.8693 18.0786ZM35.9021 20.449L35.9018 30.074H37.9018L37.9021 20.449H35.9021ZM36.1947 30.7811L37.8666 32.4531L39.2809 31.0389L37.6089 29.3669L36.1947 30.7811Z" fill="black"/>
<path d="M101.989 34C101.916 34 101.879 33.9633 101.879 33.89L101.923 18.776C101.923 18.7173 101.953 18.688 102.011 18.688L106.125 18.666C106.932 18.6513 107.665 18.842 108.325 19.238C109 19.634 109.535 20.1693 109.931 20.844C110.327 21.504 110.525 22.2373 110.525 23.044L110.525 29.358C110.525 30.2087 110.32 30.986 109.909 31.69C109.498 32.3793 108.948 32.9293 108.259 33.34C107.57 33.7507 106.792 33.9633 105.927 33.978L101.989 34ZM104.563 31.294H105.927C106.47 31.294 106.924 31.1033 107.291 30.722C107.672 30.3407 107.863 29.886 107.863 29.358L107.863 23.022C107.863 22.5527 107.687 22.1493 107.335 21.812C106.998 21.46 106.595 21.2913 106.125 21.306L104.585 21.328L104.563 31.294ZM116.449 34.22C115.657 34.22 114.931 34.022 114.271 33.626C113.625 33.2153 113.105 32.68 112.709 32.02C112.313 31.3453 112.115 30.6047 112.115 29.798L112.137 22.824C112.137 22.0173 112.328 21.284 112.709 20.624C113.105 19.964 113.633 19.436 114.293 19.04C114.953 18.644 115.672 18.446 116.449 18.446C117.241 18.446 117.96 18.644 118.605 19.04C119.251 19.436 119.764 19.964 120.145 20.624C120.541 21.284 120.739 22.0173 120.739 22.824L120.761 29.798C120.761 30.6047 120.563 31.3453 120.167 32.02C119.785 32.68 119.265 33.2153 118.605 33.626C117.959 34.022 117.241 34.22 116.449 34.22ZM116.449 31.558C116.889 31.558 117.27 31.382 117.593 31.03C117.93 30.6633 118.099 30.2527 118.099 29.798L118.077 22.824C118.077 22.34 117.923 21.9293 117.615 21.592C117.307 21.2547 116.918 21.086 116.449 21.086C115.994 21.086 115.606 21.2547 115.283 21.592C114.96 21.9147 114.799 22.3253 114.799 22.824L114.799 29.798C114.799 30.282 114.96 30.7 115.283 31.052C115.606 31.3893 115.994 31.558 116.449 31.558ZM127.141 34.22C126.335 34.22 125.601 34.022 124.941 33.626C124.296 33.2153 123.783 32.6727 123.402 31.998C123.02 31.3233 122.83 30.568 122.83 29.732L122.852 22.868C122.852 22.0613 123.035 21.328 123.402 20.668C123.783 19.9933 124.297 19.458 124.942 19.062C125.602 18.6513 126.335 18.446 127.142 18.446C127.949 18.446 128.675 18.644 129.32 19.04C129.965 19.436 130.479 19.9713 130.86 20.646C131.241 21.306 131.432 22.0467 131.432 22.868L131.432 23.88C131.432 23.9387 131.402 23.968 131.344 23.968H128.88C128.821 23.968 128.792 23.9387 128.792 23.88L128.792 22.868C128.792 22.384 128.63 21.966 128.308 21.614C128 21.262 127.611 21.086 127.142 21.086C126.614 21.086 126.21 21.2693 125.932 21.636C125.653 21.988 125.514 22.3987 125.514 22.868L125.514 29.732C125.514 30.2747 125.668 30.7147 125.976 31.052C126.298 31.3893 126.687 31.558 127.142 31.558C127.611 31.558 128 31.3747 128.308 31.008C128.63 30.6267 128.792 30.2013 128.792 29.732L128.792 28.72C128.792 28.6613 128.821 28.632 128.88 28.632H131.366C131.424 28.632 131.454 28.6613 131.454 28.72L131.454 29.732C131.454 30.568 131.256 31.3233 130.86 31.998C130.478 32.6727 129.965 33.2153 129.319 33.626C128.674 34.022 127.948 34.22 127.141 34.22ZM137.899 34.22C137.122 34.22 136.403 34.022 135.743 33.626C135.083 33.2153 134.555 32.6727 134.159 31.998C133.778 31.3233 133.587 30.5827 133.587 29.776L133.632 18.776C133.632 18.7173 133.661 18.688 133.72 18.688H136.184C136.242 18.688 136.272 18.7173 136.272 18.776L136.271 29.776C136.271 30.2747 136.425 30.7 136.733 31.052C137.056 31.3893 137.445 31.558 137.899 31.558C138.369 31.558 138.757 31.3893 139.065 31.052C139.388 30.7 139.549 30.2747 139.549 29.776L139.55 18.776C139.55 18.7173 139.579 18.688 139.638 18.688H142.102C142.16 18.688 142.19 18.7173 142.19 18.776L142.233 29.776C142.233 30.5973 142.035 31.3453 141.639 32.02C141.258 32.6947 140.737 33.23 140.077 33.626C139.432 34.022 138.706 34.22 137.899 34.22ZM144.718 34C144.66 34 144.63 33.9633 144.63 33.89L144.675 18.776C144.675 18.7173 144.704 18.688 144.763 18.688H147.447C147.505 18.688 147.557 18.7173 147.601 18.776L149.603 21.68L151.605 18.776C151.649 18.7173 151.7 18.688 151.759 18.688H154.465C154.523 18.688 154.553 18.7173 154.553 18.776L154.596 33.89C154.596 33.9633 154.567 34 154.508 34H152.022C151.964 34 151.934 33.9633 151.934 33.89L151.913 22.67L149.602 26.014L147.315 22.67L147.292 33.89C147.292 33.9633 147.263 34 147.204 34H144.718ZM157.195 34C157.136 34 157.107 33.9633 157.107 33.89L157.129 18.776C157.129 18.7173 157.158 18.688 157.217 18.688H164.279C164.338 18.688 164.367 18.7247 164.367 18.798L164.367 21.262C164.367 21.3207 164.338 21.35 164.279 21.35H159.769L159.769 24.782H164.279C164.338 24.782 164.367 24.8113 164.367 24.87L164.389 27.356C164.389 27.4147 164.36 27.444 164.301 27.444H159.769L159.769 31.294H164.301C164.359 31.294 164.389 31.3307 164.389 31.404L164.389 33.912C164.389 33.9707 164.359 34 164.301 34H157.195ZM167.203 34C167.086 34 167.027 33.9487 167.027 33.846L167.005 18.864C167.005 18.7467 167.064 18.688 167.181 18.688H169.161L172.879 27.356L172.769 18.864C172.769 18.7467 172.835 18.688 172.967 18.688H175.145C175.233 18.688 175.277 18.7467 175.277 18.864L175.299 33.868C175.299 33.956 175.262 34 175.189 34H173.253L169.447 25.904L169.601 33.824C169.601 33.9413 169.535 34 169.403 34H167.203ZM180.07 34C180.011 34 179.982 33.9633 179.982 33.89L179.982 21.35H177.122C177.049 21.35 177.012 21.3133 177.012 21.24L177.034 18.776C177.034 18.7173 177.064 18.688 177.122 18.688H185.482C185.556 18.688 185.592 18.7173 185.592 18.776L185.592 21.24C185.592 21.3133 185.563 21.35 185.504 21.35H182.622L182.644 33.89C182.644 33.9633 182.615 34 182.556 34H180.07ZM185.796 33.89L188.524 18.776C188.539 18.7173 188.575 18.688 188.634 18.688H191.824C191.883 18.688 191.919 18.7173 191.934 18.776L194.552 33.89C194.566 33.9633 194.537 34 194.464 34H192.022C191.963 34 191.926 33.9633 191.912 33.89L191.67 32.284H188.678L188.436 33.89C188.421 33.9633 188.384 34 188.326 34H185.884C185.825 34 185.796 33.9633 185.796 33.89ZM189.118 29.93H191.23L190.328 23.748L190.196 22.934L190.108 23.748L189.118 29.93ZM197.74 34C197.681 34 197.652 33.9633 197.652 33.89L197.652 21.35H194.792C194.719 21.35 194.682 21.3133 194.682 21.24L194.704 18.776C194.704 18.7173 194.733 18.688 194.792 18.688H203.152C203.225 18.688 203.262 18.7173 203.262 18.776L203.262 21.24C203.262 21.3133 203.233 21.35 203.174 21.35H200.292L200.314 33.89C200.314 33.9633 200.284 34 200.226 34H197.74ZM205.118 34C205.045 34 205.008 33.9633 205.008 33.89L205.031 18.776C205.031 18.7173 205.06 18.688 205.119 18.688H207.583C207.641 18.688 207.671 18.7173 207.671 18.776L207.692 33.89C207.692 33.9633 207.663 34 207.604 34H205.118ZM214.357 34.22C213.565 34.22 212.839 34.022 212.179 33.626C211.534 33.2153 211.013 32.68 210.617 32.02C210.221 31.3453 210.023 30.6047 210.023 29.798L210.046 22.824C210.046 22.0173 210.236 21.284 210.618 20.624C211.014 19.964 211.542 19.436 212.202 19.04C212.862 18.644 213.58 18.446 214.358 18.446C215.15 18.446 215.868 18.644 216.514 19.04C217.159 19.436 217.672 19.964 218.054 20.624C218.45 21.284 218.648 22.0173 218.648 22.824L218.669 29.798C218.669 30.6047 218.471 31.3453 218.075 32.02C217.694 32.68 217.173 33.2153 216.513 33.626C215.868 34.022 215.149 34.22 214.357 34.22ZM214.357 31.558C214.797 31.558 215.179 31.382 215.501 31.03C215.839 30.6633 216.007 30.2527 216.007 29.798L215.986 22.824C215.986 22.34 215.832 21.9293 215.524 21.592C215.216 21.2547 214.827 21.086 214.358 21.086C213.903 21.086 213.514 21.2547 213.192 21.592C212.869 21.9147 212.708 22.3253 212.708 22.824L212.707 29.798C212.707 30.282 212.869 30.7 213.191 31.052C213.514 31.3893 213.903 31.558 214.357 31.558ZM221.2 34C221.083 34 221.024 33.9487 221.024 33.846L221.002 18.864C221.002 18.7467 221.061 18.688 221.178 18.688H223.158L226.876 27.356L226.766 18.864C226.766 18.7467 226.832 18.688 226.964 18.688H229.142C229.23 18.688 229.274 18.7467 229.274 18.864L229.296 33.868C229.296 33.956 229.259 34 229.186 34H227.25L223.444 25.904L223.598 33.824C223.598 33.9413 223.532 34 223.4 34H221.2Z" fill="black"/>
<path d="M241.769 34C241.696 34 241.666 33.9633 241.681 33.89L244.409 18.776C244.424 18.7173 244.461 18.688 244.519 18.688H246.807C246.881 18.688 246.91 18.7173 246.895 18.776L244.123 33.89C244.108 33.9633 244.072 34 244.013 34H241.769Z" fill="black"/>
<path d="M261.903 34C261.844 34 261.808 33.9633 261.793 33.89L259.197 18.776C259.183 18.7173 259.205 18.688 259.263 18.688H261.727C261.786 18.688 261.823 18.7173 261.837 18.776L263.245 28.72L264.697 18.776C264.712 18.7173 264.756 18.688 264.829 18.688H266.809C266.868 18.688 266.905 18.7173 266.919 18.776L268.349 28.72L269.779 18.776C269.794 18.7173 269.831 18.688 269.889 18.688H272.331C272.405 18.688 272.434 18.7173 272.419 18.776L269.801 33.89C269.786 33.9193 269.764 33.9487 269.735 33.978C269.706 33.9927 269.691 34 269.691 34H267.029C266.985 34 266.948 33.9633 266.919 33.89L265.797 25.992L264.675 33.89C264.66 33.9633 264.624 34 264.565 34H261.903ZM274.463 34C274.404 34 274.375 33.9633 274.375 33.89L274.397 18.776C274.397 18.7173 274.434 18.688 274.507 18.688H276.949C277.023 18.688 277.059 18.7173 277.059 18.776L277.037 24.76H280.337L280.337 18.776C280.337 18.7173 280.367 18.688 280.425 18.688H282.867C282.941 18.688 282.977 18.7173 282.977 18.776L283.021 33.89C283.021 33.9633 282.984 34 282.911 34H280.447C280.374 34 280.337 33.9633 280.337 33.89L280.337 27.422H277.037L277.037 33.89C277.037 33.9633 277.008 34 276.949 34H274.463ZM289.546 34.22C288.754 34.22 288.028 34.022 287.368 33.626C286.723 33.2153 286.202 32.68 285.806 32.02C285.41 31.3453 285.212 30.6047 285.212 29.798L285.235 22.824C285.235 22.0173 285.425 21.284 285.807 20.624C286.203 19.964 286.731 19.436 287.391 19.04C288.051 18.644 288.769 18.446 289.547 18.446C290.339 18.446 291.057 18.644 291.703 19.04C292.348 19.436 292.861 19.964 293.243 20.624C293.639 21.284 293.837 22.0173 293.837 22.824L293.858 29.798C293.858 30.6047 293.66 31.3453 293.264 32.02C292.883 32.68 292.362 33.2153 291.702 33.626C291.057 34.022 290.338 34.22 289.546 34.22ZM289.546 31.558C289.986 31.558 290.368 31.382 290.69 31.03C291.028 30.6633 291.196 30.2527 291.196 29.798L291.175 22.824C291.175 22.34 291.021 21.9293 290.713 21.592C290.405 21.2547 290.016 21.086 289.547 21.086C289.092 21.086 288.703 21.2547 288.381 21.592C288.058 21.9147 287.897 22.3253 287.897 22.824L287.896 29.798C287.896 30.282 288.058 30.7 288.38 31.052C288.703 31.3893 289.092 31.558 289.546 31.558ZM296.345 23.858C296.287 23.858 296.257 23.8213 296.257 23.748L296.609 18.776C296.624 18.7173 296.661 18.688 296.719 18.688H298.897C298.971 18.688 299 18.7173 298.985 18.776L298.567 23.792C298.567 23.836 298.545 23.858 298.501 23.858H296.345ZM305.253 34.22C304.461 34.22 303.735 34.022 303.075 33.626C302.43 33.2153 301.909 32.68 301.513 32.02C301.132 31.3453 300.941 30.6047 300.941 29.798L300.941 28.786C300.941 28.7127 300.978 28.676 301.051 28.676H303.515C303.574 28.676 303.603 28.7127 303.603 28.786L303.603 29.798C303.603 30.282 303.765 30.7 304.087 31.052C304.41 31.3893 304.798 31.558 305.253 31.558C305.708 31.558 306.096 31.382 306.419 31.03C306.742 30.678 306.903 30.2673 306.903 29.798C306.903 29.2553 306.551 28.786 305.847 28.39C305.613 28.258 305.246 28.0527 304.747 27.774C304.249 27.4953 303.779 27.2313 303.339 26.982C302.533 26.5127 301.931 25.926 301.535 25.222C301.154 24.5033 300.963 23.6967 300.963 22.802C300.963 21.9807 301.161 21.2473 301.557 20.602C301.953 19.942 302.474 19.4213 303.119 19.04C303.779 18.6587 304.491 18.468 305.254 18.468C306.031 18.468 306.742 18.666 307.387 19.062C308.047 19.4433 308.568 19.964 308.949 20.624C309.345 21.2693 309.543 21.9953 309.543 22.802L309.543 24.606C309.543 24.6647 309.514 24.694 309.455 24.694H306.991C306.933 24.694 306.903 24.6647 306.903 24.606L306.881 22.802C306.881 22.2887 306.72 21.8707 306.397 21.548C306.075 21.2253 305.693 21.064 305.253 21.064C304.799 21.064 304.41 21.24 304.087 21.592C303.765 21.9293 303.603 22.3327 303.603 22.802C303.603 23.286 303.706 23.6893 303.911 24.012C304.117 24.3347 304.491 24.6427 305.033 24.936C305.107 24.98 305.246 25.0607 305.451 25.178C305.671 25.2807 305.906 25.4053 306.155 25.552C306.405 25.684 306.625 25.8013 306.815 25.904C307.021 26.0067 307.145 26.0727 307.189 26.102C307.923 26.5127 308.502 27.0187 308.927 27.62C309.353 28.2067 309.565 28.9327 309.565 29.798C309.565 30.634 309.367 31.3893 308.971 32.064C308.59 32.724 308.069 33.252 307.409 33.648C306.764 34.0293 306.045 34.22 305.253 34.22ZM319.729 34.22C318.951 34.22 318.233 34.022 317.573 33.626C316.913 33.2153 316.385 32.6727 315.989 31.998C315.607 31.3233 315.417 30.5827 315.417 29.776L315.461 18.776C315.461 18.7173 315.49 18.688 315.549 18.688H318.013C318.072 18.688 318.101 18.7173 318.101 18.776L318.101 29.776C318.101 30.2747 318.255 30.7 318.563 31.052C318.885 31.3893 319.274 31.558 319.729 31.558C320.198 31.558 320.587 31.3893 320.895 31.052C321.217 30.7 321.379 30.2747 321.379 29.776L321.379 18.776C321.379 18.7173 321.408 18.688 321.467 18.688H323.931C323.99 18.688 324.019 18.7173 324.019 18.776L324.063 29.776C324.063 30.5973 323.865 31.3453 323.469 32.02C323.087 32.6947 322.567 33.23 321.907 33.626C321.261 34.022 320.535 34.22 319.729 34.22ZM330.2 34.22C329.408 34.22 328.682 34.022 328.022 33.626C327.377 33.2153 326.856 32.68 326.46 32.02C326.079 31.3453 325.888 30.6047 325.888 29.798L325.888 28.786C325.888 28.7127 325.925 28.676 325.998 28.676H328.462C328.521 28.676 328.55 28.7127 328.55 28.786L328.55 29.798C328.55 30.282 328.711 30.7 329.034 31.052C329.357 31.3893 329.745 31.558 330.2 31.558C330.655 31.558 331.043 31.382 331.366 31.03C331.689 30.678 331.85 30.2673 331.85 29.798C331.85 29.2553 331.498 28.786 330.794 28.39C330.559 28.258 330.193 28.0527 329.694 27.774C329.195 27.4953 328.726 27.2313 328.286 26.982C327.479 26.5127 326.878 25.926 326.482 25.222C326.101 24.5033 325.91 23.6967 325.91 22.802C325.91 21.9807 326.108 21.2473 326.504 20.602C326.9 19.942 327.421 19.4213 328.066 19.04C328.726 18.6587 329.438 18.468 330.2 18.468C330.978 18.468 331.689 18.666 332.334 19.062C332.994 19.4433 333.515 19.964 333.896 20.624C334.292 21.2693 334.49 21.9953 334.49 22.802L334.49 24.606C334.49 24.6647 334.461 24.694 334.402 24.694H331.938C331.879 24.694 331.85 24.6647 331.85 24.606L331.828 22.802C331.828 22.2887 331.667 21.8707 331.344 21.548C331.022 21.2253 330.64 21.064 330.2 21.064C329.746 21.064 329.357 21.24 329.034 21.592C328.712 21.9293 328.55 22.3327 328.55 22.802C328.55 23.286 328.653 23.6893 328.858 24.012C329.063 24.3347 329.437 24.6427 329.98 24.936C330.053 24.98 330.193 25.0607 330.398 25.178C330.618 25.2807 330.853 25.4053 331.102 25.552C331.351 25.684 331.571 25.8013 331.762 25.904C331.967 26.0067 332.092 26.0727 332.136 26.102C332.869 26.5127 333.449 27.0187 333.874 27.62C334.299 28.2067 334.512 28.9327 334.512 29.798C334.512 30.634 334.314 31.3893 333.918 32.064C333.537 32.724 333.016 33.252 332.356 33.648C331.711 34.0293 330.992 34.22 330.2 34.22ZM336.812 34C336.739 34 336.702 33.9633 336.702 33.89L336.724 18.776C336.724 18.7173 336.754 18.688 336.812 18.688H339.276C339.335 18.688 339.364 18.7173 339.364 18.776L339.386 33.89C339.386 33.9633 339.357 34 339.298 34H336.812ZM342.179 34C342.062 34 342.003 33.9487 342.003 33.846L341.981 18.864C341.981 18.7467 342.04 18.688 342.157 18.688H344.137L347.855 27.356L347.745 18.864C347.745 18.7467 347.811 18.688 347.943 18.688H350.121C350.209 18.688 350.253 18.7467 350.253 18.864L350.275 33.868C350.275 33.956 350.238 34 350.165 34H348.229L344.423 25.904L344.577 33.824C344.577 33.9413 344.511 34 344.379 34H342.179ZM356.872 34.22C356.08 34.22 355.361 34.022 354.716 33.626C354.071 33.23 353.55 32.702 353.154 32.042C352.773 31.3673 352.582 30.6193 352.582 29.798L352.582 22.824C352.582 22.032 352.773 21.306 353.154 20.646C353.551 19.9713 354.071 19.436 354.717 19.04C355.377 18.644 356.095 18.446 356.873 18.446C357.679 18.446 358.405 18.644 359.051 19.04C359.711 19.4213 360.231 19.942 360.612 20.602C360.994 21.262 361.184 22.0027 361.184 22.824L361.184 23.836C361.184 23.8947 361.148 23.924 361.074 23.924H358.61C358.552 23.924 358.522 23.8947 358.522 23.836L358.522 23C358.522 22.4427 358.361 21.9807 358.038 21.614C357.73 21.2473 357.342 21.064 356.872 21.064C356.447 21.064 356.066 21.24 355.728 21.592C355.406 21.944 355.244 22.3547 355.244 22.824L355.244 29.798C355.244 30.282 355.406 30.7 355.728 31.052C356.051 31.3893 356.432 31.558 356.872 31.558C357.342 31.558 357.73 31.3893 358.038 31.052C358.361 30.7147 358.522 30.2967 358.522 29.798L358.522 28.72H356.982C356.909 28.72 356.872 28.6833 356.872 28.61L356.872 26.146C356.872 26.0727 356.909 26.036 356.982 26.036H361.096C361.155 26.036 361.184 26.0727 361.184 26.146L361.184 29.798C361.184 30.6193 360.986 31.3673 360.59 32.042C360.209 32.702 359.695 33.23 359.05 33.626C358.405 34.022 357.679 34.22 356.872 34.22Z" fill="black"/>
<path fill-rule="evenodd" clip-rule="evenodd" d="M972.849 32.3671L970.523 36.7375L970.523 51.4193H962.999L963 3.61813H970.524L970.524 24.4458L980.374 3.61813H987.898L977.432 24.9238L987.896 51.4193H980.167L972.849 32.3671ZM998.519 40.425C998.519 42.155 998.872 43.3727 999.579 44.0784C1000.29 44.784 1001.23 45.1368 1002.42 45.1368C1003.6 45.1368 1004.55 44.784 1005.26 44.0784C1005.96 43.3727 1006.32 42.155 1006.32 40.425L1006.32 14.6124C1006.32 12.8824 1005.96 11.6646 1005.26 10.959C1004.55 10.2533 1003.6 9.90053 1002.42 9.90053C1001.23 9.90053 1000.29 10.2533 999.58 10.959C998.873 11.6646 998.519 12.8824 998.519 14.6124L998.519 40.425ZM990.995 15.0905C990.995 11.2208 991.975 8.25037 993.936 6.17898C995.897 4.10758 998.724 3.0719 1002.42 3.0719C1006.11 3.0719 1008.94 4.10758 1010.9 6.17898C1012.86 8.25037 1013.84 11.2208 1013.84 15.0905L1013.84 39.9471C1013.84 43.8167 1012.86 46.7872 1010.9 48.8586C1008.94 50.93 1006.11 51.9657 1002.42 51.9657C998.723 51.9657 995.896 50.93 993.935 48.8586C991.974 46.7872 990.994 43.8167 990.994 39.9471L990.995 15.0905ZM1026.17 16.7977L1026.17 51.4195H1019.4L1019.4 3.61827H1028.84L1036.57 32.2307L1036.57 3.61827H1043.27L1043.27 51.4195H1035.54L1026.17 16.7977ZM1048.49 15.0905C1048.49 11.2209 1049.41 8.25039 1051.26 6.179C1053.11 4.1076 1055.88 3.07192 1059.57 3.07192C1063.26 3.07192 1066.03 4.1076 1067.88 6.179C1069.73 8.25039 1070.65 11.2209 1070.65 15.0905L1070.65 16.5928H1063.54L1063.54 14.6125C1063.54 12.8825 1063.21 11.6648 1062.55 10.9591C1061.88 10.2535 1060.96 9.90066 1059.78 9.90066C1058.59 9.90066 1057.67 10.2535 1057.01 10.9591C1056.34 11.6648 1056.01 12.8825 1056.01 14.6125C1056.01 16.2514 1056.38 17.6968 1057.11 18.9487C1057.84 20.2007 1058.75 21.3843 1059.84 22.4997C1060.94 23.6151 1062.11 24.7304 1063.37 25.8458C1064.62 26.9611 1065.79 28.1789 1066.89 29.4991C1067.98 30.8194 1068.9 32.3217 1069.62 34.0061C1070.35 35.6906 1070.72 37.6709 1070.72 39.9471C1070.72 43.8168 1069.77 46.7872 1067.88 48.8586C1065.99 50.93 1063.19 51.9657 1059.5 51.9657C1055.81 51.9657 1053.01 50.93 1051.12 48.8586C1049.23 46.7872 1048.28 43.8168 1048.28 39.9471L1048.28 37.0108H1055.4L1055.4 40.4251C1055.4 42.1551 1055.75 43.3615 1056.46 44.0444C1057.16 44.7272 1058.11 45.0687 1059.3 45.0687C1060.48 45.0687 1061.43 44.7272 1062.13 44.0444C1062.84 43.3615 1063.19 42.1551 1063.19 40.4251C1063.19 38.7862 1062.83 37.3408 1062.1 36.0889C1061.37 34.8369 1060.46 33.6533 1059.36 32.5379C1058.27 31.4226 1057.1 30.3072 1055.84 29.1919C1054.59 28.0765 1053.41 26.8587 1052.32 25.5385C1051.23 24.2183 1050.31 22.7159 1049.58 21.0315C1048.85 19.3471 1048.49 17.3668 1048.49 15.0905ZM1073.61 3.61811H1096.87L1096.87 10.4468H1089L1089 51.4193H1081.48L1081.48 10.4468H1073.61L1073.61 3.61811ZM1116.65 51.4193C1116.56 51.1006 1116.47 50.8047 1116.38 50.5315C1116.29 50.2584 1116.21 49.917 1116.14 49.5072C1116.07 49.0975 1116.03 48.574 1116 47.9366C1115.98 47.2993 1115.97 46.5026 1115.97 45.5466L1115.97 38.0349C1115.97 35.8042 1115.58 34.2336 1114.81 33.3231C1114.03 32.4126 1112.78 31.9574 1111.04 31.9574H1108.45L1108.44 51.4193H1100.92L1100.92 3.61809H1112.28C1116.2 3.61809 1119.04 4.52858 1120.79 6.34958C1122.55 8.17059 1123.43 10.9248 1123.43 14.6124L1123.43 18.3682C1123.43 23.2849 1121.78 26.5171 1118.5 28.065C1120.42 28.8389 1121.73 30.1022 1122.43 31.8549C1123.14 33.6077 1123.49 35.7359 1123.49 38.2398L1123.49 45.6148C1123.49 46.7985 1123.54 47.8342 1123.63 48.7219C1123.72 49.6097 1123.95 50.5088 1124.31 51.4193H1116.65ZM1108.45 10.447L1108.45 25.1288H1111.39C1112.8 25.1288 1113.91 24.7646 1114.7 24.0362C1115.5 23.3078 1115.9 21.9875 1115.9 20.0755L1115.9 15.3637C1115.9 13.6337 1115.59 12.3818 1114.98 11.6079C1114.36 10.8339 1113.39 10.447 1112.07 10.447H1108.45ZM1136.37 3.61825L1136.37 40.4935C1136.37 42.2234 1136.73 43.4298 1137.43 44.1127C1138.14 44.7956 1139.08 45.137 1140.27 45.137C1141.46 45.137 1142.4 44.7956 1143.11 44.1127C1143.82 43.4298 1144.17 42.2234 1144.17 40.4935L1144.17 3.61825H1151.28L1151.28 40.0154C1151.28 43.8851 1150.34 46.8555 1148.44 48.9269C1146.55 50.9983 1143.76 52.034 1140.07 52.034C1136.37 52.034 1133.58 50.9983 1131.69 48.9269C1129.79 46.8555 1128.85 43.8851 1128.85 40.0154L1128.85 3.61825H1136.37ZM1177.74 3.61826H1201L1201 10.447H1193.13L1193.13 51.4195H1185.61L1185.61 10.447H1177.74L1177.74 3.61826Z" fill="#1A1A1A"/>
<path fill-rule="evenodd" clip-rule="evenodd" d="M1151.95 27L1171.5 0L1171.5 54L1151.95 27Z" fill="#1A1A1A"/>
</svg>
